<?xml version="1.0" standalone="no"?><!DOCTYPE svg PUBLIC "-//W3C//DTD SVG 1.1//EN" "http://www.w3.org/Graphics/SVG/1.1/DTD/svg11.dtd"><svg t="1619510470850" class="icon" viewBox="0 0 1024 1024" version="1.1" xmlns="http://www.w3.org/2000/svg" p-id="30641" xmlns:xlink="http://www.w3.org/1999/xlink" width="200" height="200"><defs><style type="text/css"></style></defs><path d="M933.888 75.648L45.824 370.56a16 16 0 0 0-3.2 28.8l309.952 188.16a15.808 15.808 0 0 0 15.36 0.64L508.16 519.552 439.68 659.84a15.68 15.68 0 0 0 0.64 15.296l188.352 310.464c1.92 3.2 4.992 5.76 8.512 6.848a16 16 0 0 0 20.288-10.112l296.64-886.4a16.448 16.448 0 0 0 0.064-10.048 16.192 16.192 0 0 0-20.352-10.24z m-306.304 769.28L517.76 664.064l137.088-280.32a8 8 0 0 0-10.752-10.752L363.776 510.08 183.616 400.64l666.752-221.312-222.72 665.6z" p-id="30642" fill="#FF6600"></path></svg>
